<mxfile host="app.diagrams.net" modified="2024-05-21T08:53:58.315Z" agent="Mozilla/5.0 (Macintosh; Intel Mac OS X 10_15_7) AppleWebKit/605.1.15 (KHTML, like Gecko) Version/17.5 Safari/605.1.15" etag="3pnYaNpOHJy633RV0S6y" version="24.4.4" type="device">
  <diagram name="Страница — 1" id="PzGwbt8TYY5O0Qo6-Su7">
    <mxGraphModel dx="1122" dy="656" grid="1" gridSize="10" guides="1" tooltips="1" connect="1" arrows="1" fold="1" page="1" pageScale="1" pageWidth="827" pageHeight="1169" math="0" shadow="0">
      <root>
        <mxCell id="0" />
        <mxCell id="1" parent="0" />
        <mxCell id="uUwYoQYWYSNTXydeQ-hc-74" value="" style="rounded=0;whiteSpace=wrap;html=1;" vertex="1" parent="1">
          <mxGeometry x="100" y="10" width="500" height="615" as="geometry" />
        </mxCell>
        <mxCell id="uUwYoQYWYSNTXydeQ-hc-37" style="edgeStyle=orthogonalEdgeStyle;rounded=0;orthogonalLoop=1;jettySize=auto;html=1;entryX=0;entryY=0.5;entryDx=0;entryDy=0;" edge="1" parent="1" target="uUwYoQYWYSNTXydeQ-hc-33">
          <mxGeometry relative="1" as="geometry">
            <mxPoint x="80" y="140" as="sourcePoint" />
          </mxGeometry>
        </mxCell>
        <mxCell id="uUwYoQYWYSNTXydeQ-hc-38" style="edgeStyle=orthogonalEdgeStyle;rounded=0;orthogonalLoop=1;jettySize=auto;html=1;entryX=0;entryY=0.5;entryDx=0;entryDy=0;exitX=0.5;exitY=0.5;exitDx=0;exitDy=0;exitPerimeter=0;" edge="1" parent="1" source="uUwYoQYWYSNTXydeQ-hc-1" target="uUwYoQYWYSNTXydeQ-hc-31">
          <mxGeometry relative="1" as="geometry">
            <mxPoint x="110" y="150" as="sourcePoint" />
            <Array as="points">
              <mxPoint x="120" y="140" />
              <mxPoint x="120" y="90" />
            </Array>
          </mxGeometry>
        </mxCell>
        <mxCell id="uUwYoQYWYSNTXydeQ-hc-53" style="edgeStyle=orthogonalEdgeStyle;rounded=0;orthogonalLoop=1;jettySize=auto;html=1;endArrow=block;endFill=0;" edge="1" parent="1" source="uUwYoQYWYSNTXydeQ-hc-1" target="uUwYoQYWYSNTXydeQ-hc-34">
          <mxGeometry relative="1" as="geometry">
            <mxPoint x="75" y="170" as="sourcePoint" />
          </mxGeometry>
        </mxCell>
        <mxCell id="uUwYoQYWYSNTXydeQ-hc-1" value="Заказчик еды" style="shape=umlActor;verticalLabelPosition=bottom;verticalAlign=top;html=1;outlineConnect=0;" vertex="1" parent="1">
          <mxGeometry x="40" y="110" width="30" height="60" as="geometry" />
        </mxCell>
        <mxCell id="uUwYoQYWYSNTXydeQ-hc-57" style="edgeStyle=orthogonalEdgeStyle;rounded=0;orthogonalLoop=1;jettySize=auto;html=1;" edge="1" parent="1" source="uUwYoQYWYSNTXydeQ-hc-3" target="uUwYoQYWYSNTXydeQ-hc-29">
          <mxGeometry relative="1" as="geometry">
            <Array as="points">
              <mxPoint x="120" y="390" />
              <mxPoint x="120" y="395" />
            </Array>
          </mxGeometry>
        </mxCell>
        <mxCell id="uUwYoQYWYSNTXydeQ-hc-72" style="edgeStyle=orthogonalEdgeStyle;rounded=0;orthogonalLoop=1;jettySize=auto;html=1;" edge="1" parent="1" source="uUwYoQYWYSNTXydeQ-hc-3" target="uUwYoQYWYSNTXydeQ-hc-30">
          <mxGeometry relative="1" as="geometry" />
        </mxCell>
        <mxCell id="uUwYoQYWYSNTXydeQ-hc-3" value="Ресторан" style="shape=umlActor;verticalLabelPosition=bottom;verticalAlign=top;html=1;outlineConnect=0;" vertex="1" parent="1">
          <mxGeometry x="40" y="360" width="30" height="60" as="geometry" />
        </mxCell>
        <mxCell id="uUwYoQYWYSNTXydeQ-hc-55" style="edgeStyle=orthogonalEdgeStyle;rounded=0;orthogonalLoop=1;jettySize=auto;html=1;entryX=1;entryY=0.5;entryDx=0;entryDy=0;" edge="1" parent="1" source="uUwYoQYWYSNTXydeQ-hc-4" target="uUwYoQYWYSNTXydeQ-hc-32">
          <mxGeometry relative="1" as="geometry" />
        </mxCell>
        <mxCell id="uUwYoQYWYSNTXydeQ-hc-4" value="Курьер" style="shape=umlActor;verticalLabelPosition=bottom;verticalAlign=top;html=1;outlineConnect=0;" vertex="1" parent="1">
          <mxGeometry x="620" y="445" width="30" height="60" as="geometry" />
        </mxCell>
        <mxCell id="uUwYoQYWYSNTXydeQ-hc-9" style="edgeStyle=orthogonalEdgeStyle;rounded=0;orthogonalLoop=1;jettySize=auto;html=1;entryX=0;entryY=0.5;entryDx=0;entryDy=0;" edge="1" parent="1" source="uUwYoQYWYSNTXydeQ-hc-1" target="uUwYoQYWYSNTXydeQ-hc-11">
          <mxGeometry relative="1" as="geometry">
            <mxPoint x="450" y="150" as="targetPoint" />
            <mxPoint x="110" y="150" as="sourcePoint" />
            <Array as="points">
              <mxPoint x="170" y="140" />
              <mxPoint x="170" y="150" />
            </Array>
          </mxGeometry>
        </mxCell>
        <mxCell id="uUwYoQYWYSNTXydeQ-hc-11" value="Заказать еду из ресторана" style="ellipse;whiteSpace=wrap;html=1;" vertex="1" parent="1">
          <mxGeometry x="220" y="120" width="100" height="60" as="geometry" />
        </mxCell>
        <mxCell id="uUwYoQYWYSNTXydeQ-hc-18" value="Зарегистрировать пользователя" style="ellipse;whiteSpace=wrap;html=1;" vertex="1" parent="1">
          <mxGeometry x="370" y="60" width="120" height="60" as="geometry" />
        </mxCell>
        <mxCell id="uUwYoQYWYSNTXydeQ-hc-19" style="edgeStyle=orthogonalEdgeStyle;rounded=0;orthogonalLoop=1;jettySize=auto;html=1;entryX=0.5;entryY=0;entryDx=0;entryDy=0;dashed=1;" edge="1" parent="1" source="uUwYoQYWYSNTXydeQ-hc-18" target="uUwYoQYWYSNTXydeQ-hc-11">
          <mxGeometry relative="1" as="geometry" />
        </mxCell>
        <mxCell id="uUwYoQYWYSNTXydeQ-hc-20" value="&amp;lt;&amp;lt;include&amp;gt;&amp;gt;" style="text;html=1;align=center;verticalAlign=middle;whiteSpace=wrap;rounded=0;container=0;" vertex="1" parent="1">
          <mxGeometry x="290" y="60" width="60" height="30" as="geometry" />
        </mxCell>
        <mxCell id="uUwYoQYWYSNTXydeQ-hc-24" style="edgeStyle=orthogonalEdgeStyle;rounded=0;orthogonalLoop=1;jettySize=auto;html=1;entryX=0.5;entryY=1;entryDx=0;entryDy=0;dashed=1;" edge="1" parent="1" source="uUwYoQYWYSNTXydeQ-hc-23" target="uUwYoQYWYSNTXydeQ-hc-11">
          <mxGeometry relative="1" as="geometry" />
        </mxCell>
        <mxCell id="uUwYoQYWYSNTXydeQ-hc-23" value="Оставить отзыв на ресторан" style="ellipse;whiteSpace=wrap;html=1;" vertex="1" parent="1">
          <mxGeometry x="370" y="170" width="125" height="60" as="geometry" />
        </mxCell>
        <mxCell id="uUwYoQYWYSNTXydeQ-hc-25" value="&amp;lt;&amp;lt;include&amp;gt;&amp;gt;" style="text;html=1;align=center;verticalAlign=middle;whiteSpace=wrap;rounded=0;" vertex="1" parent="1">
          <mxGeometry x="290" y="190" width="60" height="30" as="geometry" />
        </mxCell>
        <mxCell id="uUwYoQYWYSNTXydeQ-hc-28" value="Просмотр блюд из ресторана" style="ellipse;whiteSpace=wrap;html=1;" vertex="1" parent="1">
          <mxGeometry x="140" y="330" width="110" height="60" as="geometry" />
        </mxCell>
        <mxCell id="uUwYoQYWYSNTXydeQ-hc-60" style="edgeStyle=orthogonalEdgeStyle;rounded=0;orthogonalLoop=1;jettySize=auto;html=1;entryX=0.5;entryY=0;entryDx=0;entryDy=0;dashed=1;" edge="1" parent="1" source="uUwYoQYWYSNTXydeQ-hc-29" target="uUwYoQYWYSNTXydeQ-hc-32">
          <mxGeometry relative="1" as="geometry" />
        </mxCell>
        <mxCell id="uUwYoQYWYSNTXydeQ-hc-29" value="Принять заказ от клиента" style="ellipse;whiteSpace=wrap;html=1;" vertex="1" parent="1">
          <mxGeometry x="290" y="370" width="120" height="50" as="geometry" />
        </mxCell>
        <mxCell id="uUwYoQYWYSNTXydeQ-hc-30" value="Добавление новых блюд в каталог" style="ellipse;whiteSpace=wrap;html=1;" vertex="1" parent="1">
          <mxGeometry x="160" y="420" width="120" height="50" as="geometry" />
        </mxCell>
        <mxCell id="uUwYoQYWYSNTXydeQ-hc-31" value="Узнать статус заказа" style="ellipse;whiteSpace=wrap;html=1;" vertex="1" parent="1">
          <mxGeometry x="146" y="65" width="100" height="50" as="geometry" />
        </mxCell>
        <mxCell id="uUwYoQYWYSNTXydeQ-hc-32" value="Изменить статус заказа" style="ellipse;whiteSpace=wrap;html=1;" vertex="1" parent="1">
          <mxGeometry x="290" y="450" width="120" height="50" as="geometry" />
        </mxCell>
        <mxCell id="uUwYoQYWYSNTXydeQ-hc-33" value="Оплатить заказ" style="ellipse;whiteSpace=wrap;html=1;" vertex="1" parent="1">
          <mxGeometry x="260" y="230" width="100" height="50" as="geometry" />
        </mxCell>
        <mxCell id="uUwYoQYWYSNTXydeQ-hc-59" style="edgeStyle=orthogonalEdgeStyle;rounded=0;orthogonalLoop=1;jettySize=auto;html=1;entryX=0.5;entryY=0;entryDx=0;entryDy=0;" edge="1" parent="1" source="uUwYoQYWYSNTXydeQ-hc-34" target="uUwYoQYWYSNTXydeQ-hc-28">
          <mxGeometry relative="1" as="geometry">
            <mxPoint x="110" y="300" as="sourcePoint" />
          </mxGeometry>
        </mxCell>
        <mxCell id="uUwYoQYWYSNTXydeQ-hc-34" value="Посетитель&amp;nbsp;&lt;div&gt;приложения&lt;/div&gt;" style="shape=umlActor;verticalLabelPosition=bottom;verticalAlign=top;html=1;outlineConnect=0;" vertex="1" parent="1">
          <mxGeometry x="40" y="240" width="30" height="60" as="geometry" />
        </mxCell>
        <mxCell id="uUwYoQYWYSNTXydeQ-hc-39" value="Наличными" style="ellipse;whiteSpace=wrap;html=1;" vertex="1" parent="1">
          <mxGeometry x="200" y="290" width="90" height="40" as="geometry" />
        </mxCell>
        <mxCell id="uUwYoQYWYSNTXydeQ-hc-40" value="Банковской картой" style="ellipse;whiteSpace=wrap;html=1;" vertex="1" parent="1">
          <mxGeometry x="340" y="290" width="90" height="40" as="geometry" />
        </mxCell>
        <mxCell id="uUwYoQYWYSNTXydeQ-hc-51" style="rounded=0;orthogonalLoop=1;jettySize=auto;html=1;exitX=1;exitY=0;exitDx=0;exitDy=0;entryX=0.292;entryY=0.987;entryDx=0;entryDy=0;entryPerimeter=0;endArrow=block;endFill=0;" edge="1" parent="1" source="uUwYoQYWYSNTXydeQ-hc-39" target="uUwYoQYWYSNTXydeQ-hc-33">
          <mxGeometry relative="1" as="geometry" />
        </mxCell>
        <mxCell id="uUwYoQYWYSNTXydeQ-hc-52" style="rounded=0;orthogonalLoop=1;jettySize=auto;html=1;exitX=0;exitY=0;exitDx=0;exitDy=0;entryX=0.742;entryY=1.003;entryDx=0;entryDy=0;entryPerimeter=0;endArrow=block;endFill=0;" edge="1" parent="1" source="uUwYoQYWYSNTXydeQ-hc-40" target="uUwYoQYWYSNTXydeQ-hc-33">
          <mxGeometry relative="1" as="geometry" />
        </mxCell>
        <mxCell id="uUwYoQYWYSNTXydeQ-hc-61" value="&amp;lt;&amp;lt;include&amp;gt;&amp;gt;" style="text;html=1;align=center;verticalAlign=middle;whiteSpace=wrap;rounded=0;" vertex="1" parent="1">
          <mxGeometry x="356" y="415" width="60" height="30" as="geometry" />
        </mxCell>
        <mxCell id="uUwYoQYWYSNTXydeQ-hc-67" style="rounded=0;orthogonalLoop=1;jettySize=auto;html=1;entryX=0;entryY=1;entryDx=0;entryDy=0;endArrow=block;endFill=0;" edge="1" parent="1" source="uUwYoQYWYSNTXydeQ-hc-62" target="uUwYoQYWYSNTXydeQ-hc-32">
          <mxGeometry relative="1" as="geometry" />
        </mxCell>
        <mxCell id="uUwYoQYWYSNTXydeQ-hc-62" value="Заказ принят" style="ellipse;whiteSpace=wrap;html=1;" vertex="1" parent="1">
          <mxGeometry x="106" y="535" width="120" height="60" as="geometry" />
        </mxCell>
        <mxCell id="uUwYoQYWYSNTXydeQ-hc-63" value="Заказ готовится" style="ellipse;whiteSpace=wrap;html=1;" vertex="1" parent="1">
          <mxGeometry x="230" y="535" width="120" height="60" as="geometry" />
        </mxCell>
        <mxCell id="uUwYoQYWYSNTXydeQ-hc-71" style="rounded=0;orthogonalLoop=1;jettySize=auto;html=1;exitX=0;exitY=0;exitDx=0;exitDy=0;entryX=0.5;entryY=1;entryDx=0;entryDy=0;endArrow=block;endFill=0;" edge="1" parent="1" source="uUwYoQYWYSNTXydeQ-hc-64" target="uUwYoQYWYSNTXydeQ-hc-32">
          <mxGeometry relative="1" as="geometry" />
        </mxCell>
        <mxCell id="uUwYoQYWYSNTXydeQ-hc-64" value="Заказ передан курьеру" style="ellipse;whiteSpace=wrap;html=1;" vertex="1" parent="1">
          <mxGeometry x="356" y="535" width="120" height="60" as="geometry" />
        </mxCell>
        <mxCell id="uUwYoQYWYSNTXydeQ-hc-70" style="rounded=0;orthogonalLoop=1;jettySize=auto;html=1;exitX=0;exitY=0;exitDx=0;exitDy=0;entryX=1;entryY=1;entryDx=0;entryDy=0;endArrow=block;endFill=0;" edge="1" parent="1" source="uUwYoQYWYSNTXydeQ-hc-65" target="uUwYoQYWYSNTXydeQ-hc-32">
          <mxGeometry relative="1" as="geometry" />
        </mxCell>
        <mxCell id="uUwYoQYWYSNTXydeQ-hc-65" value="Заказ доставлен" style="ellipse;whiteSpace=wrap;html=1;" vertex="1" parent="1">
          <mxGeometry x="480" y="535" width="120" height="60" as="geometry" />
        </mxCell>
        <mxCell id="uUwYoQYWYSNTXydeQ-hc-68" style="rounded=0;orthogonalLoop=1;jettySize=auto;html=1;entryX=0.45;entryY=1.04;entryDx=0;entryDy=0;entryPerimeter=0;endArrow=block;endFill=0;exitX=1;exitY=0;exitDx=0;exitDy=0;" edge="1" parent="1" source="uUwYoQYWYSNTXydeQ-hc-63" target="uUwYoQYWYSNTXydeQ-hc-32">
          <mxGeometry relative="1" as="geometry" />
        </mxCell>
        <mxCell id="uUwYoQYWYSNTXydeQ-hc-76" value="&lt;h3&gt;Заказ еды в мобильном приложении&lt;/h3&gt;" style="text;html=1;align=center;verticalAlign=middle;whiteSpace=wrap;rounded=0;" vertex="1" parent="1">
          <mxGeometry x="100" y="10" width="290" height="30" as="geometry" />
        </mxCell>
      </root>
    </mxGraphModel>
  </diagram>
</mxfile>
